<svg width="100" height="100" viewBox="0 0 100 100" fill="none" xmlns="http://www.w3.org/2000/svg">
    <path d="M55.2446 83H39.9566V76.952L32.1446 83.168C30.3526 83.616 28.1966 83.84 25.6766 83.84C21.9806 83.84 18.6486 82.888 15.6806 80.984C12.7686 79.08 10.4726 76.476 8.79261 73.172C7.16861 69.868 6.35661 66.228 6.35661 62.252C6.35661 57.94 7.64461 53.88 10.2206 50.072C12.7966 46.264 16.0166 43.24 19.8806 41C23.8006 38.76 27.5806 37.64 31.2206 37.64C34.4686 37.64 37.3806 38.592 39.9566 40.496V22.268L32.4806 16.976V14.792L46.4246 9.668H49.1966V77.036L56.7566 80.06L55.2446 83ZM29.6246 77.456C31.3606 77.456 33.0126 77.204 34.5806 76.7C36.1486 76.196 37.9406 75.216 39.9566 73.76V54.02C39.6206 51.164 38.2766 48.812 35.9246 46.964C33.5726 45.116 30.3806 44.192 26.3486 44.192C19.7406 44.192 16.4366 48.868 16.4366 58.22C16.4366 63.652 17.5846 68.244 19.8806 71.996C22.1766 75.692 25.4526 77.54 29.7086 77.54L29.6246 77.456ZM86.929 83.168C85.753 83.616 84.325 83.84 82.645 83.84C78.109 83.84 74.805 82.636 72.733 80.228C70.661 77.764 69.625 73.984 69.625 68.888V44.024H60.553V40.832L76.093 22.436H78.865V41H93.985V44.024H78.865V70.232C78.865 74.88 81.049 77.204 85.417 77.204C86.593 77.204 87.713 76.952 88.777 76.448C89.897 75.944 91.269 74.992 92.893 73.592L95.413 76.448L86.929 83.168Z" fill="white"/>
</svg>